<svg xmlns="http://www.w3.org/2000/svg" width="793" height="406" viewBox="0 0 793 406">
  <g id="dots-shape" transform="translate(-11299 -12934)" opacity="0.15">
    <circle id="Ellipse_1070" data-name="Ellipse 1070" cx="9.5" cy="9.5" r="9.5" transform="translate(11299 12934)" fill="#d42b71"/>
    <ellipse id="Ellipse_1071" data-name="Ellipse 1071" cx="9.5" cy="9" rx="9.5" ry="9" transform="translate(11299 13045)" fill="#d42b71"/>
    <circle id="Ellipse_1072" data-name="Ellipse 1072" cx="9.5" cy="9.5" r="9.5" transform="translate(11299 13155)" fill="#d42b71"/>
    <ellipse id="Ellipse_1073" data-name="Ellipse 1073" cx="9.5" cy="9" rx="9.5" ry="9" transform="translate(11299 13266)" fill="#d42b71"/>
    <circle id="Ellipse_1074" data-name="Ellipse 1074" cx="9.5" cy="9.5" r="9.5" transform="translate(11299 12989)" fill="#d42b71"/>
    <circle id="Ellipse_1075" data-name="Ellipse 1075" cx="9.5" cy="9.5" r="9.5" transform="translate(11299 13100)" fill="#d42b71"/>
    <circle id="Ellipse_1076" data-name="Ellipse 1076" cx="9.5" cy="9.5" r="9.5" transform="translate(11299 13210)" fill="#d42b71"/>
    <circle id="Ellipse_1077" data-name="Ellipse 1077" cx="9.5" cy="9.5" r="9.5" transform="translate(11299 13321)" fill="#d42b71"/>
    <circle id="Ellipse_1078" data-name="Ellipse 1078" cx="9.5" cy="9.5" r="9.5" transform="translate(11465 12934)" fill="#d42b71"/>
    <ellipse id="Ellipse_1079" data-name="Ellipse 1079" cx="9.5" cy="9" rx="9.5" ry="9" transform="translate(11465 13045)" fill="#d42b71"/>
    <circle id="Ellipse_1080" data-name="Ellipse 1080" cx="9.5" cy="9.5" r="9.5" transform="translate(11465 13155)" fill="#d42b71"/>
    <ellipse id="Ellipse_1081" data-name="Ellipse 1081" cx="9.5" cy="9" rx="9.5" ry="9" transform="translate(11465 13266)" fill="#d42b71"/>
    <circle id="Ellipse_1082" data-name="Ellipse 1082" cx="9.5" cy="9.5" r="9.5" transform="translate(11465 12989)" fill="#d42b71"/>
    <circle id="Ellipse_1083" data-name="Ellipse 1083" cx="9.5" cy="9.5" r="9.5" transform="translate(11465 13100)" fill="#d42b71"/>
    <circle id="Ellipse_1084" data-name="Ellipse 1084" cx="9.5" cy="9.5" r="9.5" transform="translate(11465 13210)" fill="#d42b71"/>
    <circle id="Ellipse_1085" data-name="Ellipse 1085" cx="9.5" cy="9.5" r="9.5" transform="translate(11465 13321)" fill="#d42b71"/>
    <circle id="Ellipse_1086" data-name="Ellipse 1086" cx="9.5" cy="9.5" r="9.5" transform="translate(11630 12934)" fill="#d42b71"/>
    <ellipse id="Ellipse_1087" data-name="Ellipse 1087" cx="9.5" cy="9" rx="9.5" ry="9" transform="translate(11630 13045)" fill="#d42b71"/>
    <circle id="Ellipse_1088" data-name="Ellipse 1088" cx="9.5" cy="9.5" r="9.5" transform="translate(11630 13155)" fill="#d42b71"/>
    <ellipse id="Ellipse_1089" data-name="Ellipse 1089" cx="9.5" cy="9" rx="9.5" ry="9" transform="translate(11630 13266)" fill="#d42b71"/>
    <circle id="Ellipse_1090" data-name="Ellipse 1090" cx="9.5" cy="9.5" r="9.5" transform="translate(11630 12989)" fill="#d42b71"/>
    <circle id="Ellipse_1091" data-name="Ellipse 1091" cx="9.5" cy="9.5" r="9.5" transform="translate(11630 13100)" fill="#d42b71"/>
    <circle id="Ellipse_1092" data-name="Ellipse 1092" cx="9.5" cy="9.5" r="9.5" transform="translate(11630 13210)" fill="#d42b71"/>
    <circle id="Ellipse_1093" data-name="Ellipse 1093" cx="9.5" cy="9.5" r="9.5" transform="translate(11630 13321)" fill="#d42b71"/>
    <circle id="Ellipse_1094" data-name="Ellipse 1094" cx="9.5" cy="9.5" r="9.5" transform="translate(11907 12934)" fill="#d42b71"/>
    <ellipse id="Ellipse_1095" data-name="Ellipse 1095" cx="9.5" cy="9" rx="9.5" ry="9" transform="translate(11907 13045)" fill="#d42b71"/>
    <circle id="Ellipse_1096" data-name="Ellipse 1096" cx="9.5" cy="9.5" r="9.5" transform="translate(11907 13155)" fill="#d42b71"/>
    <ellipse id="Ellipse_1097" data-name="Ellipse 1097" cx="9.5" cy="9" rx="9.5" ry="9" transform="translate(11907 13266)" fill="#d42b71"/>
    <circle id="Ellipse_1098" data-name="Ellipse 1098" cx="9.5" cy="9.5" r="9.5" transform="translate(11907 12989)" fill="#d42b71"/>
    <circle id="Ellipse_1099" data-name="Ellipse 1099" cx="9.5" cy="9.5" r="9.5" transform="translate(11907 13100)" fill="#d42b71"/>
    <circle id="Ellipse_1100" data-name="Ellipse 1100" cx="9.5" cy="9.5" r="9.5" transform="translate(11907 13210)" fill="#d42b71"/>
    <circle id="Ellipse_1101" data-name="Ellipse 1101" cx="9.5" cy="9.5" r="9.5" transform="translate(11907 13321)" fill="#d42b71"/>
    <ellipse id="Ellipse_1102" data-name="Ellipse 1102" cx="9" cy="9.5" rx="9" ry="9.5" transform="translate(11410 12934)" fill="#d42b71"/>
    <circle id="Ellipse_1103" data-name="Ellipse 1103" cx="9" cy="9" r="9" transform="translate(11410 13045)" fill="#d42b71"/>
    <ellipse id="Ellipse_1104" data-name="Ellipse 1104" cx="9" cy="9.5" rx="9" ry="9.5" transform="translate(11410 13155)" fill="#d42b71"/>
    <circle id="Ellipse_1105" data-name="Ellipse 1105" cx="9" cy="9" r="9" transform="translate(11410 13266)" fill="#d42b71"/>
    <ellipse id="Ellipse_1106" data-name="Ellipse 1106" cx="9" cy="9.5" rx="9" ry="9.5" transform="translate(11410 12989)" fill="#d42b71"/>
    <ellipse id="Ellipse_1107" data-name="Ellipse 1107" cx="9" cy="9.5" rx="9" ry="9.5" transform="translate(11410 13100)" fill="#d42b71"/>
    <ellipse id="Ellipse_1108" data-name="Ellipse 1108" cx="9" cy="9.5" rx="9" ry="9.5" transform="translate(11410 13210)" fill="#d42b71"/>
    <ellipse id="Ellipse_1109" data-name="Ellipse 1109" cx="9" cy="9.5" rx="9" ry="9.5" transform="translate(11410 13321)" fill="#d42b71"/>
    <circle id="Ellipse_1110" data-name="Ellipse 1110" cx="9.5" cy="9.5" r="9.5" transform="translate(11575 12934)" fill="#d42b71"/>
    <ellipse id="Ellipse_1111" data-name="Ellipse 1111" cx="9.5" cy="9" rx="9.5" ry="9" transform="translate(11575 13045)" fill="#d42b71"/>
    <circle id="Ellipse_1112" data-name="Ellipse 1112" cx="9.5" cy="9.5" r="9.5" transform="translate(11575 13155)" fill="#d42b71"/>
    <ellipse id="Ellipse_1113" data-name="Ellipse 1113" cx="9.5" cy="9" rx="9.5" ry="9" transform="translate(11575 13266)" fill="#d42b71"/>
    <circle id="Ellipse_1114" data-name="Ellipse 1114" cx="9.5" cy="9.5" r="9.5" transform="translate(11575 12989)" fill="#d42b71"/>
    <circle id="Ellipse_1115" data-name="Ellipse 1115" cx="9.5" cy="9.5" r="9.5" transform="translate(11575 13100)" fill="#d42b71"/>
    <circle id="Ellipse_1116" data-name="Ellipse 1116" cx="9.5" cy="9.5" r="9.5" transform="translate(11575 13210)" fill="#d42b71"/>
    <circle id="Ellipse_1117" data-name="Ellipse 1117" cx="9.5" cy="9.5" r="9.5" transform="translate(11575 13321)" fill="#d42b71"/>
    <circle id="Ellipse_1118" data-name="Ellipse 1118" cx="9.5" cy="9.5" r="9.5" transform="translate(11741 12934)" fill="#d42b71"/>
    <circle id="Ellipse_1119" data-name="Ellipse 1119" cx="9.5" cy="9.5" r="9.5" transform="translate(11796 12934)" fill="#d42b71"/>
    <circle id="Ellipse_1120" data-name="Ellipse 1120" cx="9.5" cy="9.5" r="9.5" transform="translate(11851 12934)" fill="#d42b71"/>
    <ellipse id="Ellipse_1121" data-name="Ellipse 1121" cx="9.5" cy="9" rx="9.5" ry="9" transform="translate(11741 13045)" fill="#d42b71"/>
    <ellipse id="Ellipse_1122" data-name="Ellipse 1122" cx="9.5" cy="9" rx="9.5" ry="9" transform="translate(11796 13045)" fill="#d42b71"/>
    <ellipse id="Ellipse_1123" data-name="Ellipse 1123" cx="9.5" cy="9" rx="9.5" ry="9" transform="translate(11851 13045)" fill="#d42b71"/>
    <circle id="Ellipse_1124" data-name="Ellipse 1124" cx="9.5" cy="9.5" r="9.5" transform="translate(11741 13155)" fill="#d42b71"/>
    <circle id="Ellipse_1125" data-name="Ellipse 1125" cx="9.5" cy="9.5" r="9.5" transform="translate(11796 13155)" fill="#d42b71"/>
    <circle id="Ellipse_1126" data-name="Ellipse 1126" cx="9.5" cy="9.5" r="9.5" transform="translate(11851 13155)" fill="#d42b71"/>
    <ellipse id="Ellipse_1127" data-name="Ellipse 1127" cx="9.5" cy="9" rx="9.5" ry="9" transform="translate(11741 13266)" fill="#d42b71"/>
    <ellipse id="Ellipse_1128" data-name="Ellipse 1128" cx="9.5" cy="9" rx="9.5" ry="9" transform="translate(11796 13266)" fill="#d42b71"/>
    <ellipse id="Ellipse_1129" data-name="Ellipse 1129" cx="9.5" cy="9" rx="9.5" ry="9" transform="translate(11851 13266)" fill="#d42b71"/>
    <circle id="Ellipse_1130" data-name="Ellipse 1130" cx="9.5" cy="9.5" r="9.5" transform="translate(11741 12989)" fill="#d42b71"/>
    <circle id="Ellipse_1131" data-name="Ellipse 1131" cx="9.5" cy="9.5" r="9.5" transform="translate(11796 12989)" fill="#d42b71"/>
    <circle id="Ellipse_1132" data-name="Ellipse 1132" cx="9.5" cy="9.5" r="9.5" transform="translate(11851 12989)" fill="#d42b71"/>
    <circle id="Ellipse_1133" data-name="Ellipse 1133" cx="9.5" cy="9.5" r="9.5" transform="translate(11741 13100)" fill="#d42b71"/>
    <circle id="Ellipse_1134" data-name="Ellipse 1134" cx="9.5" cy="9.5" r="9.5" transform="translate(11796 13100)" fill="#d42b71"/>
    <circle id="Ellipse_1135" data-name="Ellipse 1135" cx="9.5" cy="9.5" r="9.5" transform="translate(11851 13100)" fill="#d42b71"/>
    <circle id="Ellipse_1136" data-name="Ellipse 1136" cx="9.5" cy="9.5" r="9.5" transform="translate(11741 13210)" fill="#d42b71"/>
    <circle id="Ellipse_1137" data-name="Ellipse 1137" cx="9.5" cy="9.5" r="9.5" transform="translate(11796 13210)" fill="#d42b71"/>
    <circle id="Ellipse_1138" data-name="Ellipse 1138" cx="9.5" cy="9.5" r="9.5" transform="translate(11851 13210)" fill="#d42b71"/>
    <circle id="Ellipse_1139" data-name="Ellipse 1139" cx="9.5" cy="9.5" r="9.5" transform="translate(11741 13321)" fill="#d42b71"/>
    <circle id="Ellipse_1140" data-name="Ellipse 1140" cx="9.5" cy="9.5" r="9.5" transform="translate(11796 13321)" fill="#d42b71"/>
    <circle id="Ellipse_1141" data-name="Ellipse 1141" cx="9.5" cy="9.5" r="9.5" transform="translate(11851 13321)" fill="#d42b71"/>
    <circle id="Ellipse_1142" data-name="Ellipse 1142" cx="9.5" cy="9.5" r="9.5" transform="translate(11354 12934)" fill="#d42b71"/>
    <ellipse id="Ellipse_1143" data-name="Ellipse 1143" cx="9.5" cy="9" rx="9.5" ry="9" transform="translate(11354 13045)" fill="#d42b71"/>
    <circle id="Ellipse_1144" data-name="Ellipse 1144" cx="9.5" cy="9.5" r="9.5" transform="translate(11354 13155)" fill="#d42b71"/>
    <ellipse id="Ellipse_1145" data-name="Ellipse 1145" cx="9.5" cy="9" rx="9.5" ry="9" transform="translate(11354 13266)" fill="#d42b71"/>
    <circle id="Ellipse_1146" data-name="Ellipse 1146" cx="9.5" cy="9.5" r="9.5" transform="translate(11354 12989)" fill="#d42b71"/>
    <circle id="Ellipse_1147" data-name="Ellipse 1147" cx="9.5" cy="9.5" r="9.5" transform="translate(11354 13100)" fill="#d42b71"/>
    <circle id="Ellipse_1148" data-name="Ellipse 1148" cx="9.5" cy="9.5" r="9.5" transform="translate(11354 13210)" fill="#d42b71"/>
    <circle id="Ellipse_1149" data-name="Ellipse 1149" cx="9.5" cy="9.5" r="9.5" transform="translate(11354 13321)" fill="#d42b71"/>
    <circle id="Ellipse_1150" data-name="Ellipse 1150" cx="9.5" cy="9.5" r="9.5" transform="translate(11520 12934)" fill="#d42b71"/>
    <ellipse id="Ellipse_1151" data-name="Ellipse 1151" cx="9.5" cy="9" rx="9.5" ry="9" transform="translate(11520 13045)" fill="#d42b71"/>
    <circle id="Ellipse_1152" data-name="Ellipse 1152" cx="9.5" cy="9.5" r="9.5" transform="translate(11520 13155)" fill="#d42b71"/>
    <ellipse id="Ellipse_1153" data-name="Ellipse 1153" cx="9.5" cy="9" rx="9.5" ry="9" transform="translate(11520 13266)" fill="#d42b71"/>
    <circle id="Ellipse_1154" data-name="Ellipse 1154" cx="9.5" cy="9.5" r="9.5" transform="translate(11520 12989)" fill="#d42b71"/>
    <circle id="Ellipse_1155" data-name="Ellipse 1155" cx="9.5" cy="9.5" r="9.5" transform="translate(11520 13100)" fill="#d42b71"/>
    <circle id="Ellipse_1156" data-name="Ellipse 1156" cx="9.5" cy="9.5" r="9.5" transform="translate(11520 13210)" fill="#d42b71"/>
    <circle id="Ellipse_1157" data-name="Ellipse 1157" cx="9.5" cy="9.5" r="9.5" transform="translate(11520 13321)" fill="#d42b71"/>
    <circle id="Ellipse_1158" data-name="Ellipse 1158" cx="9.5" cy="9.5" r="9.5" transform="translate(11685 12934)" fill="#d42b71"/>
    <ellipse id="Ellipse_1159" data-name="Ellipse 1159" cx="9.5" cy="9" rx="9.5" ry="9" transform="translate(11685 13045)" fill="#d42b71"/>
    <circle id="Ellipse_1160" data-name="Ellipse 1160" cx="9.5" cy="9.5" r="9.5" transform="translate(11685 13155)" fill="#d42b71"/>
    <ellipse id="Ellipse_1161" data-name="Ellipse 1161" cx="9.5" cy="9" rx="9.5" ry="9" transform="translate(11685 13266)" fill="#d42b71"/>
    <circle id="Ellipse_1162" data-name="Ellipse 1162" cx="9.5" cy="9.5" r="9.5" transform="translate(11685 12989)" fill="#d42b71"/>
    <circle id="Ellipse_1163" data-name="Ellipse 1163" cx="9.5" cy="9.5" r="9.5" transform="translate(11685 13100)" fill="#d42b71"/>
    <circle id="Ellipse_1164" data-name="Ellipse 1164" cx="9.5" cy="9.5" r="9.5" transform="translate(11685 13210)" fill="#d42b71"/>
    <circle id="Ellipse_1165" data-name="Ellipse 1165" cx="9.5" cy="9.5" r="9.5" transform="translate(11685 13321)" fill="#d42b71"/>
    <circle id="Ellipse_1166" data-name="Ellipse 1166" cx="9.5" cy="9.5" r="9.5" transform="translate(11962 12934)" fill="#d42b71"/>
    <ellipse id="Ellipse_1167" data-name="Ellipse 1167" cx="10" cy="9.5" rx="10" ry="9.5" transform="translate(12017 12934)" fill="#d42b71"/>
    <ellipse id="Ellipse_1168" data-name="Ellipse 1168" cx="10" cy="9.5" rx="10" ry="9.5" transform="translate(12072 12934)" fill="#d42b71"/>
    <ellipse id="Ellipse_1169" data-name="Ellipse 1169" cx="9.5" cy="9" rx="9.5" ry="9" transform="translate(11962 13045)" fill="#d42b71"/>
    <ellipse id="Ellipse_1170" data-name="Ellipse 1170" cx="10" cy="9" rx="10" ry="9" transform="translate(12017 13045)" fill="#d42b71"/>
    <ellipse id="Ellipse_1171" data-name="Ellipse 1171" cx="10" cy="9" rx="10" ry="9" transform="translate(12072 13045)" fill="#d42b71"/>
    <circle id="Ellipse_1172" data-name="Ellipse 1172" cx="9.5" cy="9.5" r="9.5" transform="translate(11962 13155)" fill="#d42b71"/>
    <ellipse id="Ellipse_1173" data-name="Ellipse 1173" cx="10" cy="9.5" rx="10" ry="9.5" transform="translate(12017 13155)" fill="#d42b71"/>
    <ellipse id="Ellipse_1174" data-name="Ellipse 1174" cx="10" cy="9.5" rx="10" ry="9.5" transform="translate(12072 13155)" fill="#d42b71"/>
    <ellipse id="Ellipse_1175" data-name="Ellipse 1175" cx="9.5" cy="9" rx="9.5" ry="9" transform="translate(11962 13266)" fill="#d42b71"/>
    <ellipse id="Ellipse_1176" data-name="Ellipse 1176" cx="10" cy="9" rx="10" ry="9" transform="translate(12017 13266)" fill="#d42b71"/>
    <ellipse id="Ellipse_1177" data-name="Ellipse 1177" cx="10" cy="9" rx="10" ry="9" transform="translate(12072 13266)" fill="#d42b71"/>
    <circle id="Ellipse_1178" data-name="Ellipse 1178" cx="9.5" cy="9.5" r="9.5" transform="translate(11962 12989)" fill="#d42b71"/>
    <ellipse id="Ellipse_1179" data-name="Ellipse 1179" cx="10" cy="9.5" rx="10" ry="9.5" transform="translate(12017 12989)" fill="#d42b71"/>
    <ellipse id="Ellipse_1180" data-name="Ellipse 1180" cx="10" cy="9.5" rx="10" ry="9.5" transform="translate(12072 12989)" fill="#d42b71"/>
    <circle id="Ellipse_1181" data-name="Ellipse 1181" cx="9.5" cy="9.5" r="9.5" transform="translate(11962 13100)" fill="#d42b71"/>
    <ellipse id="Ellipse_1182" data-name="Ellipse 1182" cx="10" cy="9.5" rx="10" ry="9.5" transform="translate(12017 13100)" fill="#d42b71"/>
    <ellipse id="Ellipse_1183" data-name="Ellipse 1183" cx="10" cy="9.5" rx="10" ry="9.5" transform="translate(12072 13100)" fill="#d42b71"/>
    <circle id="Ellipse_1184" data-name="Ellipse 1184" cx="9.5" cy="9.5" r="9.5" transform="translate(11962 13210)" fill="#d42b71"/>
    <ellipse id="Ellipse_1185" data-name="Ellipse 1185" cx="10" cy="9.5" rx="10" ry="9.5" transform="translate(12017 13210)" fill="#d42b71"/>
    <ellipse id="Ellipse_1186" data-name="Ellipse 1186" cx="10" cy="9.5" rx="10" ry="9.5" transform="translate(12072 13210)" fill="#d42b71"/>
    <circle id="Ellipse_1187" data-name="Ellipse 1187" cx="9.5" cy="9.5" r="9.5" transform="translate(11962 13321)" fill="#d42b71"/>
    <ellipse id="Ellipse_1188" data-name="Ellipse 1188" cx="10" cy="9.5" rx="10" ry="9.5" transform="translate(12017 13321)" fill="#d42b71"/>
    <ellipse id="Ellipse_1189" data-name="Ellipse 1189" cx="10" cy="9.5" rx="10" ry="9.5" transform="translate(12072 13321)" fill="#d42b71"/>
  </g>
</svg>
