<svg width="89" height="22" viewBox="0 0 89 22" fill="none" xmlns="http://www.w3.org/2000/svg">
<path d="M24.1482 8.20996V6.83252H30.6374V8.20996H28.2184V14.7331H26.5672V8.20996H24.1482Z" fill="#545454"/>
<path d="M34.3776 14.8485C33.7714 14.8485 33.2485 14.7243 32.8082 14.4759C32.3679 14.2275 32.0291 13.8761 31.792 13.4202C31.5563 12.963 31.4392 12.4224 31.4392 11.7972C31.4392 11.1875 31.5563 10.6533 31.792 10.194C32.0291 9.73316 32.3629 9.37398 32.7941 9.1157C33.2245 8.85814 33.7312 8.729 34.3126 8.729C34.8334 8.729 35.3041 8.8405 35.724 9.06207C36.1452 9.28224 36.479 9.61672 36.726 10.0641C36.9744 10.5101 37.0986 11.0683 37.0986 11.7379V12.1896H33.0622V12.1952C33.0622 12.6376 33.1822 12.9855 33.4235 13.2396C33.6663 13.4936 33.9937 13.6206 34.4058 13.6206C34.6803 13.6206 34.9174 13.5635 35.1171 13.4484C35.3182 13.332 35.4601 13.1605 35.5433 12.9347L37.0619 13.0363C36.9469 13.5861 36.654 14.0257 36.1841 14.3545C35.7134 14.6841 35.1115 14.8485 34.3776 14.8485ZM33.0622 11.1706H35.5518C35.5476 10.8192 35.4339 10.5291 35.2102 10.3012C34.9858 10.0719 34.6951 9.95685 34.3381 9.95685C33.9725 9.95685 33.6733 10.0754 33.4405 10.3125C33.2069 10.5482 33.0806 10.834 33.0622 11.1706Z" fill="#545454"/>
<path d="M43.1011 10.496L41.5967 10.5891C41.555 10.3993 41.4506 10.2363 41.2833 10.1008C41.1175 9.96391 40.8917 9.89475 40.6059 9.89475C40.3519 9.89475 40.1359 9.94838 39.9595 10.0556C39.7824 10.1615 39.6956 10.3033 39.6998 10.4819C39.6956 10.623 39.7514 10.743 39.8664 10.8403C39.9807 10.9384 40.1755 11.0167 40.4507 11.0746L41.5233 11.292C42.6636 11.5255 43.2345 12.0597 43.2366 12.8952C43.2366 13.2847 43.1223 13.6263 42.8951 13.9198C42.6671 14.212 42.3545 14.4392 41.958 14.6029C41.5628 14.7666 41.109 14.8485 40.5974 14.8485C39.8127 14.8485 39.1868 14.6848 38.7204 14.3573C38.2554 14.0285 37.9844 13.5811 37.9075 13.0166L39.5248 12.9319C39.5756 13.1732 39.6942 13.3553 39.8805 13.4795C40.0682 13.6023 40.3081 13.663 40.6003 13.663C40.8896 13.663 41.1225 13.6065 41.2975 13.4936C41.4739 13.3807 41.5635 13.2367 41.5656 13.0617C41.5578 12.7682 41.3045 12.572 40.8063 12.4718L39.7789 12.2686C38.6329 12.0392 38.0613 11.4747 38.0655 10.575C38.0634 10.0034 38.2921 9.55251 38.7514 9.22296C39.2101 8.89413 39.8191 8.729 40.5777 8.729C41.3264 8.729 41.9163 8.88707 42.3475 9.20321C42.7779 9.51934 43.0291 9.9505 43.1011 10.496Z" fill="#545454"/>
<path d="M47.4245 8.80846V10.0419H46.3096V12.9126C46.3096 13.1384 46.3604 13.2922 46.462 13.3727C46.565 13.4517 46.6998 13.4912 46.8656 13.4912C46.9425 13.4912 47.0194 13.4849 47.0971 13.4714C47.174 13.4566 47.2333 13.4453 47.2749 13.4376L47.5318 14.6598C47.4506 14.6866 47.3349 14.7162 47.1846 14.7501C47.0357 14.7854 46.855 14.8073 46.6426 14.815C46.0442 14.839 45.5644 14.7099 45.2031 14.4255C44.8418 14.1418 44.6626 13.7085 44.6668 13.1271V10.0419H43.8567V8.80846H44.6668V7.38867H46.3096V8.80846H47.4245Z" fill="#545454"/>
<path d="M48.492 14.733V8.80832H50.1376V14.733H48.492ZM49.2371 8.04339C48.9958 8.04339 48.7883 7.96153 48.6133 7.79782C48.4383 7.63411 48.3508 7.43864 48.3508 7.21071C48.3508 6.98137 48.4383 6.78591 48.6133 6.62361C48.7883 6.46201 48.9958 6.38086 49.2371 6.38086C49.4813 6.38086 49.6916 6.46201 49.8666 6.62361C50.0416 6.78591 50.1291 6.98137 50.1291 7.21071C50.1291 7.43864 50.0416 7.63411 49.8666 7.79782C49.6916 7.96153 49.4813 8.04339 49.2371 8.04339Z" fill="#545454"/>
<path d="M51.446 14.7327V8.80804H53.0126V9.85241H53.0832C53.2074 9.50241 53.4134 9.2279 53.7013 9.0282C53.9906 8.82921 54.335 8.729 54.7344 8.729C55.1409 8.729 55.4859 8.83062 55.7703 9.03385C56.0561 9.23567 56.2473 9.50805 56.3433 9.85241H56.4054C56.5254 9.5137 56.7448 9.24202 57.0631 9.03667C57.3806 8.83203 57.7575 8.729 58.1921 8.729C58.7433 8.729 59.1921 8.90542 59.5385 9.25684C59.8843 9.60684 60.0579 10.1036 60.0579 10.7472V14.7327H58.418V11.0718C58.418 10.743 58.3304 10.496 58.1554 10.3323C57.9804 10.1671 57.7617 10.0839 57.5006 10.0839C57.2014 10.0839 56.9678 10.1791 56.8006 10.369C56.6348 10.5595 56.5522 10.8079 56.5522 11.1141V14.7327H54.9574V11.0379C54.9574 10.7465 54.8741 10.515 54.709 10.3436C54.5432 10.1707 54.3251 10.0839 54.0542 10.0839C53.7811 10.0839 53.5524 10.1841 53.3683 10.3831C53.1834 10.5828 53.0916 10.8474 53.0916 11.1762V14.7327H51.446Z" fill="#545454"/>
<path d="M64.0322 14.8485C63.4317 14.8485 62.9131 14.7207 62.477 14.4646C62.0423 14.2091 61.7064 13.8514 61.4693 13.392C61.2336 12.9333 61.1165 12.3998 61.1165 11.7916C61.1165 11.1805 61.2336 10.6449 61.4693 10.1855C61.7064 9.7268 62.0423 9.36904 62.477 9.11288C62.9131 8.85743 63.4317 8.729 64.0322 8.729C64.6306 8.729 65.1479 8.85743 65.5847 9.11288C66.0208 9.36904 66.3567 9.7268 66.5924 10.1855C66.8295 10.6449 66.948 11.1805 66.948 11.7916C66.948 12.3998 66.8295 12.9333 66.5924 13.392C66.3567 13.8514 66.0208 14.2091 65.5847 14.4646C65.1479 14.7207 64.6306 14.8485 64.0322 14.8485ZM64.0407 13.5755C64.4472 13.5755 64.7548 13.4061 64.9637 13.0674C65.1726 12.7273 65.277 12.2982 65.277 11.7803C65.277 11.2651 65.1726 10.8368 64.9637 10.496C64.7548 10.1537 64.4472 9.98225 64.0407 9.98225C63.6265 9.98225 63.3132 10.1537 63.1008 10.496C62.8898 10.8368 62.7846 11.2651 62.7846 11.7803C62.7846 12.2982 62.8898 12.7273 63.1008 13.0674C63.3132 13.4061 63.6265 13.5755 64.0407 13.5755Z" fill="#545454"/>
<path d="M69.6654 11.3061V14.7327H68.0198V8.80804H69.5863V9.85241H69.6569C69.7903 9.50805 70.0104 9.23567 70.3174 9.03385C70.6258 8.83062 70.9991 8.729 71.438 8.729C72.0547 8.729 72.5501 8.92871 72.9227 9.3274C73.2967 9.72469 73.4844 10.2688 73.4844 10.9589V14.7327H71.8416V11.2524C71.843 10.8897 71.7499 10.6061 71.5622 10.4028C71.3738 10.1982 71.1148 10.0952 70.786 10.0952C70.4543 10.0952 70.1854 10.2017 69.9787 10.4141C69.7712 10.6272 69.6668 10.9243 69.6654 11.3061Z" fill="#545454"/>
<path d="M74.7732 14.733V8.80832H76.4188V14.733H74.7732ZM75.5184 8.04339C75.2771 8.04339 75.0696 7.96153 74.8946 7.79782C74.7196 7.63411 74.6321 7.43864 74.6321 7.21071C74.6321 6.98137 74.7196 6.78591 74.8946 6.62361C75.0696 6.46201 75.2771 6.38086 75.5184 6.38086C75.7625 6.38086 75.9728 6.46201 76.1478 6.62361C76.3228 6.78591 76.4103 6.98137 76.4103 7.21071C76.4103 7.43864 76.3228 7.63411 76.1478 7.79782C75.9728 7.96153 75.7625 8.04339 75.5184 8.04339Z" fill="#545454"/>
<path d="M79.4188 14.8457C78.8521 14.8457 78.3829 14.6982 78.0103 14.4025C77.6377 14.1054 77.4514 13.6644 77.4514 13.0787C77.4514 12.6369 77.5544 12.2898 77.7619 12.0371C77.9708 11.7852 78.2446 11.601 78.5833 11.4839C78.922 11.3653 79.2868 11.2884 79.6785 11.2524C80.1922 11.2016 80.5591 11.148 80.7793 11.0915C81.0009 11.0351 81.1124 10.9109 81.1124 10.719V10.6964C81.1124 10.4522 81.0347 10.2631 80.8809 10.129C80.7285 9.99566 80.5119 9.92862 80.2317 9.92862C79.936 9.92862 79.7011 9.99354 79.5261 10.1234C79.351 10.2518 79.2353 10.4141 79.1789 10.6117L77.6603 10.4875C77.7732 9.94768 78.0533 9.51934 78.5014 9.20321C78.9509 8.88707 79.5303 8.729 80.2402 8.729C80.6805 8.729 81.0912 8.79886 81.4737 8.93788C81.8575 9.0776 82.1666 9.29494 82.4023 9.58991C82.6373 9.88346 82.7551 10.2659 82.7551 10.7359V14.7327H81.1971V13.9114H81.1519C81.0065 14.1866 80.7906 14.411 80.5027 14.586C80.2162 14.7589 79.8549 14.8457 79.4188 14.8457ZM79.8902 13.711C80.2494 13.711 80.545 13.6065 80.7765 13.3976C81.0079 13.1874 81.1237 12.9263 81.1237 12.6158V11.9863C81.0594 12.0301 80.9599 12.0682 80.8245 12.1021C80.689 12.1359 80.545 12.1656 80.3926 12.1896C80.2402 12.2143 80.1033 12.2347 79.9833 12.2517C79.6954 12.2933 79.4625 12.3744 79.2861 12.4944C79.109 12.6151 79.0208 12.7908 79.0208 13.0222C79.0208 13.2502 79.1027 13.4223 79.2664 13.5388C79.4301 13.6538 79.6375 13.711 79.8902 13.711Z" fill="#545454"/>
<path d="M85.6786 6.83252V14.7331H84.033V6.83252H85.6786Z" fill="#545454"/>
<path d="M11.4267 2.51855C6.82584 2.51855 3.09644 6.24867 3.09644 10.8489C3.09644 15.4497 6.82584 19.1791 11.4267 19.1791C16.0269 19.1791 19.757 15.449 19.757 10.8489C19.757 6.24867 16.0269 2.51855 11.4267 2.51855ZM9.38597 13.0858C9.38597 13.536 9.02114 13.9001 8.57164 13.9001C8.12143 13.9001 7.75731 13.536 7.75731 13.0858V9.61395C7.75731 9.16374 8.12143 8.79891 8.57164 8.79891C9.02114 8.79891 9.38597 9.16374 9.38597 9.61395V13.0858ZM15.1385 13.0272C15.1385 13.6637 14.7666 13.8917 14.1301 13.8917H11.2016C10.5651 13.8917 10.0493 13.3758 10.0493 12.7393V9.85881C10.0493 9.85881 9.99213 9.37967 10.5228 8.92946C10.8227 8.67472 11.268 8.18852 11.5792 7.59859C12.1973 6.42649 12.5671 6.08495 12.8486 6.17669C13.8916 6.5147 13.3701 8.0608 13.0335 8.70647H13.9862C14.622 8.70647 15.1385 9.22231 15.1385 9.85881V13.0272Z" fill="#271273"/>
</svg>
