<?xml version="1.0" encoding="UTF-8"?>
<svg version="1.1" xmlns="http://www.w3.org/2000/svg" width="514" height="514">
<path d="M0 0 C169.62 0 339.24 0 514 0 C514 169.62 514 339.24 514 514 C344.38 514 174.76 514 0 514 C0 344.38 0 174.76 0 0 Z " fill="#FBFBFB" transform="translate(0,0)"/>
<path d="M0 0 C18.83993647 -0.09431085 37.6798237 -0.16439686 56.51994896 -0.20724869 C65.27184411 -0.22769276 74.02359089 -0.2554558 82.77539062 -0.30175781 C90.42195525 -0.34219249 98.06841226 -0.36756378 105.71508086 -0.37635398 C109.7471851 -0.38147531 113.77898203 -0.39310841 117.81098557 -0.42292023 C138.66100867 -0.57101043 158.89414303 0.68950328 179.55535889 3.52883911 C184.13813219 4.15567467 188.72818763 4.71262289 193.3203125 5.265625 C195.9223165 5.59032621 198.5236043 5.92043585 201.125 6.25 C202.51170292 6.4246049 203.89842183 6.59908295 205.28515625 6.7734375 C208.52359341 7.18107295 211.76187708 7.58987732 215 8 C215 8.33 215 8.66 215 9 C179.69 9.33 144.38 9.66 108 10 C115.92 10.66 123.84 11.32 132 12 C139.375 13 139.375 13 142.54296875 13.49609375 C147.69553517 14.2471458 152.87047766 14.77608235 158.05029297 15.30273438 C161.18637907 15.63233848 163.9978404 15.99928013 167 17 C168.89364227 17.19300414 170.79191305 17.34213592 172.69140625 17.46484375 C173.80064453 17.54283203 174.90988281 17.62082031 176.05273438 17.70117188 C178.39620858 17.85896841 180.73996675 18.01260187 183.08398438 18.16210938 C184.19193359 18.24138672 185.29988281 18.32066406 186.44140625 18.40234375 C187.45920166 18.46929443 188.47699707 18.53624512 189.52563477 18.60522461 C192 19 192 19 194 21 C127.34 21 60.68 21 -8 21 C-7 16 -7 16 -5 13 C-2.48165894 12.60127258 -2.48165894 12.60127258 0.73486328 12.56762695 C1.93595734 12.54783279 3.13705139 12.52803864 4.37454224 12.50764465 C5.67664642 12.50125473 6.97875061 12.49486481 8.3203125 12.48828125 C9.6626857 12.47144088 11.00504306 12.45329151 12.34738159 12.43388367 C15.88188734 12.38630693 19.41632893 12.35654775 22.9510498 12.33044434 C26.55733835 12.30067712 30.16341003 12.25429617 33.76953125 12.20898438 C40.84637262 12.12128865 47.92268578 12.06141296 55 12 C35.86 11.01 16.72 10.02 -3 9 C-2.01 6.03 -1.02 3.06 0 0 Z " fill="#FE0202" transform="translate(239,296)"/>
<path d="M0 0 C42.24 0 84.48 0 128 0 C127 5 127 5 125 8 C123.08908081 8.39872742 123.08908081 8.39872742 120.73388672 8.43237305 C119.41274368 8.46206429 119.41274368 8.46206429 118.06491089 8.49235535 C116.63672531 8.50194023 116.63672531 8.50194023 115.1796875 8.51171875 C114.20589142 8.52966995 113.23209534 8.54762115 112.22879028 8.56611633 C109.11090458 8.62040632 105.99317355 8.65417491 102.875 8.6875 C100.7643013 8.72065657 98.65362306 8.75514466 96.54296875 8.79101562 C91.36211788 8.87614307 86.18124743 8.94441336 81 9 C85.2134187 9.40936515 89.42688083 9.81827971 93.64038086 10.22680664 C95.06877781 10.3653597 96.49716356 10.50402826 97.92553711 10.64282227 C106.28137266 11.45466599 114.63793722 12.25435958 123 13 C121.125 18.75 121.125 18.75 120 21 C78.42 21 36.84 21 -6 21 C-4.02 18.03 -4.02 18.03 -2 15 C-3.65 14.67 -5.3 14.34 -7 14 C-5.84826645 11.53199953 -4.95216435 9.95216435 -3 8 C0.625 7.875 0.625 7.875 4 8 C3.01 6.576875 3.01 6.576875 2 5.125 C0 2 0 2 0 0 Z " fill="#070707" transform="translate(102,296)"/>
<path d="M0 0 C1.73380609 -0.01165281 3.4675728 -0.03230729 5.20117188 -0.06152344 C7.73364076 -0.10401612 10.26507159 -0.12032515 12.79785156 -0.13061523 C13.57076538 -0.14812332 14.3436792 -0.16563141 15.14001465 -0.18367004 C18.68385031 -0.16930541 20.69717188 0.01513618 23.59277344 2.13818359 C25.07910156 4.29516602 25.07910156 4.29516602 25.14160156 7.23266602 C23.79796297 13.52583046 21.84064123 21.8869044 16.91113281 26.18579102 C16.3065625 26.55188477 15.70199219 26.91797852 15.07910156 27.29516602 C15.29824219 28.11758789 15.51738281 28.94000977 15.74316406 29.78735352 C16.17378876 34.28387652 15.07599204 37.27704295 13.45410156 41.42016602 C13.2053125 42.12270508 12.95652344 42.82524414 12.70019531 43.54907227 C10.52242602 49.28061432 7.69248933 51.73828981 2.4140625 54.8828125 C-1.48181546 56.53271397 -4.79518733 56.67827247 -8.94433594 56.58813477 C-9.69051178 56.58388992 -10.43668762 56.57964508 -11.20547485 56.57527161 C-13.56932942 56.55858984 -15.9323052 56.52095941 -18.29589844 56.48266602 C-19.90656314 56.46760551 -21.51724131 56.4539195 -23.12792969 56.44165039 C-27.05925359 56.40872105 -30.98992745 56.35701363 -34.92089844 56.29516602 C-34.34010797 51.21640815 -33.22127775 46.81263409 -31.48730469 41.97094727 C-31.24930649 41.3022612 -31.01130829 40.63357513 -30.76609802 39.94462585 C-30.2657122 38.54269969 -29.76217445 37.14189486 -29.25561523 35.7421875 C-28.48259276 33.60543901 -27.71950858 31.46534129 -26.95800781 29.32446289 C-23.23561208 18.92459329 -23.23561208 18.92459329 -20.92089844 14.29516602 C-15.64089844 14.29516602 -10.36089844 14.29516602 -4.92089844 14.29516602 C-6.92089844 20.29516602 -6.92089844 20.29516602 -7.92089844 22.29516602 C-3.63089844 22.29516602 0.65910156 22.29516602 5.07910156 22.29516602 C5.40910156 20.31516602 5.73910156 18.33516602 6.07910156 16.29516602 C6.70135761 14.61141436 7.35454522 12.93749373 8.07910156 11.29516602 C6.9369519 11.30302124 6.9369519 11.30302124 5.77172852 11.31103516 C2.31169464 11.33186126 -1.14832603 11.34484415 -4.60839844 11.35766602 C-5.80658203 11.36604492 -7.00476563 11.37442383 -8.23925781 11.38305664 C-9.9746582 11.38789063 -9.9746582 11.38789063 -11.74511719 11.39282227 C-12.80819092 11.39805908 -13.87126465 11.4032959 -14.96655273 11.40869141 C-17.73434934 11.30233446 -20.22882741 10.9241139 -22.92089844 10.29516602 C-19.92089844 8.29516602 -19.92089844 8.29516602 -15.92089844 6.29516602 C-20.21089844 4.97516602 -24.50089844 3.65516602 -28.92089844 2.29516602 C-28.92089844 1.96516602 -28.92089844 1.63516602 -28.92089844 1.29516602 C-19.28551491 0.26297677 -9.68058676 0.04534883 0 0 Z " fill="#070707" transform="translate(98.9208984375,232.704833984375)"/>
<path d="M0 0 C4.95 0 9.9 0 15 0 C14.33397396 3.33013019 13.71160334 6.08042473 12.58984375 9.20703125 C12.32236328 9.95791016 12.05488281 10.70878906 11.77929688 11.48242188 C11.36260742 12.63581055 11.36260742 12.63581055 10.9375 13.8125 C10.65583984 14.60076172 10.37417969 15.38902344 10.08398438 16.20117188 C9.39241462 18.13522289 8.69662722 20.06776488 8 22 C11.96 22 15.92 22 20 22 C20.226875 20.7625 20.45375 19.525 20.6875 18.25 C21.92271965 12.62885551 23.84360682 4.15639318 28 0 C30.35313555 -0.07271741 32.70833668 -0.08370868 35.0625 -0.0625 C36.35285156 -0.05347656 37.64320313 -0.04445312 38.97265625 -0.03515625 C39.97167969 -0.02355469 40.97070312 -0.01195312 42 0 C41.42988982 5.08361855 40.26609837 9.58332212 38.453125 14.375 C38.20004578 15.06198975 37.94696655 15.74897949 37.68621826 16.45678711 C36.88064546 18.64033129 36.06587801 20.82028789 35.25 23 C34.18929465 25.85290932 33.13284651 28.70737361 32.078125 31.5625 C31.81938599 32.26036621 31.56064697 32.95823242 31.29406738 33.67724609 C29.03500947 39.80983721 26.97883671 45.99966623 24.97167969 52.21875 C24 55 24 55 23 56 C20.46950598 56.07313567 17.96695163 56.09247527 15.4375 56.0625 C14.72658203 56.05798828 14.01566406 56.05347656 13.28320312 56.04882812 C11.52209987 56.03700864 9.76103964 56.01907263 8 56 C8.71222971 53.62590097 9.42498914 51.25198178 10.140625 48.87890625 C10.70328085 46.99400915 11.25577491 45.10604162 11.796875 43.21484375 C12.04953125 42.33957031 12.3021875 41.46429688 12.5625 40.5625 C12.79066406 39.75941406 13.01882813 38.95632813 13.25390625 38.12890625 C14 36 14 36 16 33 C12.04 33 8.08 33 4 33 C3.5875 34.4025 3.175 35.805 2.75 37.25 C-2.40337423 54.40337423 -2.40337423 54.40337423 -4 56 C-6.53049402 56.07313567 -9.03304837 56.09247527 -11.5625 56.0625 C-12.62887695 56.05573242 -12.62887695 56.05573242 -13.71679688 56.04882812 C-15.47790013 56.03700864 -17.23896036 56.01907263 -19 56 C-17.62953898 49.20998861 -15.69965615 42.83243842 -13.375 36.3125 C-13.02816162 35.32805908 -12.68132324 34.34361816 -12.32397461 33.3293457 C-9.12117839 24.26832048 -5.86077695 15.2273353 -2.56640625 6.19921875 C-2.28740479 5.43440186 -2.00840332 4.66958496 -1.72094727 3.8815918 C-1 2 -1 2 0 0 Z " fill="#060606" transform="translate(277,233)"/>
<path d="M0 0 C1.45589197 -0.01654238 2.91170329 -0.0438107 4.3671875 -0.08203125 C6.47186162 -0.13698358 8.57463546 -0.1586985 10.67993164 -0.17333984 C11.93974854 -0.19315918 13.19956543 -0.21297852 14.49755859 -0.23339844 C17.87915039 0.35009766 17.87915039 0.35009766 20.89160156 2.4453125 C22.87915039 5.35009766 22.87915039 5.35009766 22.82568359 8.74316406 C21.90806166 12.23992611 20.91780408 15.64480042 19.73461914 19.06103516 C19.08976562 20.92888672 19.08976562 20.92888672 18.43188477 22.83447266 C18.20718506 23.47449219 17.98248535 24.11451172 17.75097656 24.77392578 C17.07167933 26.710759 16.40338545 28.65112335 15.73657227 30.59228516 C8.74758713 50.79692941 8.74758713 50.79692941 2.34008789 55.02587891 C-2.35934296 56.82396814 -6.51592168 56.67612632 -11.49584961 56.53759766 C-12.42268555 56.5240625 -13.34952148 56.51052734 -14.30444336 56.49658203 C-16.57718959 56.46143647 -18.84870808 56.41223897 -21.12084961 56.35009766 C-20.33416443 54.72268021 -19.54132551 53.09823634 -18.74584961 51.47509766 C-18.30499023 50.57017578 -17.86413086 49.66525391 -17.40991211 48.73291016 C-16.12084961 46.35009766 -16.12084961 46.35009766 -14.12084961 44.35009766 C-11.95678711 43.93603516 -11.95678711 43.93603516 -9.49584961 43.72509766 C-8.67858398 43.65033203 -7.86131836 43.57556641 -7.01928711 43.49853516 C-6.39280273 43.44955078 -5.76631836 43.40056641 -5.12084961 43.35009766 C-4.92974609 42.76631348 -4.73864258 42.1825293 -4.54174805 41.58105469 C-3.65477198 38.87796578 -2.76283451 36.17653765 -1.87084961 33.47509766 C-1.57049805 32.55728516 -1.27014648 31.63947266 -0.96069336 30.69384766 C1.0972732 24.47616144 3.39364871 18.40988273 5.87915039 12.35009766 C-0.55584961 12.84509766 -0.55584961 12.84509766 -7.12084961 13.35009766 C-7.51014648 14.30787109 -7.89944336 15.26564453 -8.30053711 16.25244141 C-12.4296337 26.16680378 -17.36371959 35.31280316 -22.96801758 44.46582031 C-24.5811763 47.10249101 -26.16216622 49.7581496 -27.74584961 52.41259766 C-28.53670247 53.72558818 -29.3279829 55.03832224 -30.12084961 56.35009766 C-32.8989162 54.10972138 -34.02032927 52.74739679 -34.90600586 49.24682617 C-35.16893318 44.47798183 -34.16039842 41.03150467 -32.62084961 36.56494141 C-32.21080688 35.33596886 -32.21080688 35.33596886 -31.79248047 34.08216858 C-31.21156889 32.35758221 -30.6227882 30.6356287 -30.02661133 28.91625977 C-29.12527926 26.30045318 -28.26458398 23.67355981 -27.40600586 21.04345703 C-26.83420945 19.36229266 -26.26006633 17.68192425 -25.68334961 16.00244141 C-25.43198242 15.22416489 -25.18061523 14.44588837 -24.92163086 13.64402771 C-20.48261919 1.19067218 -11.92530532 0.09929927 0 0 Z " fill="#070707" transform="translate(346.120849609375,232.64990234375)"/>
<path d="M0 0 C0.77403168 0.00141495 1.54806335 0.0028299 2.34555054 0.00428772 C4.82155192 0.00989222 7.29746338 0.02244542 9.7734375 0.03515625 C11.45051953 0.04017067 13.12760297 0.04473368 14.8046875 0.04882812 C18.91930556 0.0598631 23.03385628 0.07713071 27.1484375 0.09765625 C26.69130489 4.76040889 26.29170039 8.49268063 23.1484375 12.09765625 C20.3293457 12.6652832 20.3293457 12.6652832 16.94921875 12.5859375 C15.13647461 12.56176758 15.13647461 12.56176758 13.28710938 12.53710938 C11.3931543 12.47426758 11.3931543 12.47426758 9.4609375 12.41015625 C7.54958008 12.37631836 7.54958008 12.37631836 5.59960938 12.34179688 C2.4480479 12.28277887 -0.70117529 12.200486 -3.8515625 12.09765625 C-4.06619141 13.49371094 -4.06619141 13.49371094 -4.28515625 14.91796875 C-4.81548625 17.89513167 -5.63572972 20.34176863 -6.8515625 23.09765625 C-6.23112061 23.0819458 -5.61067871 23.06623535 -4.97143555 23.05004883 C-2.16073722 22.98769411 0.64981562 22.94866477 3.4609375 22.91015625 C4.43740234 22.88501953 5.41386719 22.85988281 6.41992188 22.83398438 C7.35771484 22.82431641 8.29550781 22.81464844 9.26171875 22.8046875 C10.12579346 22.78897705 10.98986816 22.7732666 11.88012695 22.75708008 C14.1484375 23.09765625 14.1484375 23.09765625 15.93164062 24.41943359 C17.99251932 27.26182528 17.46357687 29.67960614 17.1484375 33.09765625 C16.44772624 36.07169385 15.49289549 38.91131725 14.4609375 41.78515625 C14.21666016 42.53087891 13.97238281 43.27660156 13.72070312 44.04492188 C12.06695581 48.73821489 10.49272936 51.35494665 6.1484375 54.09765625 C5.60195557 54.45674072 5.05547363 54.8158252 4.49243164 55.18579102 C1.07045482 56.51701521 -2.2824067 56.34307598 -5.8984375 56.29296875 C-7.05524017 56.28872391 -7.05524017 56.28872391 -8.2354126 56.28439331 C-10.69095582 56.27322638 -13.1461301 56.24812854 -15.6015625 56.22265625 C-17.26952597 56.21262193 -18.93749518 56.20349686 -20.60546875 56.1953125 C-24.68764147 56.1732985 -28.7695395 56.13879292 -32.8515625 56.09765625 C-32.39442989 51.43490361 -31.99482539 47.70263187 -28.8515625 44.09765625 C-26.0324707 43.5300293 -26.0324707 43.5300293 -22.65234375 43.609375 C-20.83959961 43.63354492 -20.83959961 43.63354492 -18.99023438 43.65820312 C-17.0962793 43.72104492 -17.0962793 43.72104492 -15.1640625 43.78515625 C-13.88982422 43.80771484 -12.61558594 43.83027344 -11.30273438 43.85351562 C-8.1511729 43.91253363 -5.00194971 43.9948265 -1.8515625 44.09765625 C-1.63693359 42.68613281 -1.63693359 42.68613281 -1.41796875 41.24609375 C-0.91196588 38.43341574 -0.26320259 36.54449908 1.1484375 34.09765625 C-0.08132812 34.19046875 -1.31109375 34.28328125 -2.578125 34.37890625 C-15.31818871 35.05689008 -15.31818871 35.05689008 -19.41796875 32.4921875 C-21.72366942 29.53089002 -23.01323091 27.58500561 -22.59765625 23.76171875 C-17.70234828 6.28213743 -17.70234828 6.28213743 -9.8515625 1.09765625 C-6.73202122 -0.46211439 -3.42196866 -0.02338501 0 0 Z " fill="#080808" transform="translate(237.8515625,232.90234375)"/>
<path d="M0 0 C0.9583374 0.00523682 1.9166748 0.01047363 2.90405273 0.01586914 C4.45576172 0.02070313 4.45576172 0.02070313 6.03881836 0.02563477 C7.12743164 0.03401367 8.21604492 0.04239258 9.33764648 0.05102539 C10.97636719 0.05779297 10.97636719 0.05779297 12.64819336 0.06469727 C15.35723144 0.07652713 18.06616248 0.09300996 20.77514648 0.11352539 C20.15443767 4.94458435 18.73675136 9.23184102 16.96264648 13.73852539 C15.0807715 18.6246593 13.26971862 23.50721189 11.65014648 28.48852539 C10.20927062 32.90009592 8.57518515 37.18155567 6.82202148 41.47680664 C4.95618016 46.17622042 3.3101697 50.95502761 1.62329102 55.72094727 C-0.23363193 60.95924458 -2.10248792 66.19323099 -3.97485352 71.42602539 C-4.37599365 72.55468018 -4.77713379 73.68333496 -5.19042969 74.84619141 C-5.5678833 75.89991943 -5.94533691 76.95364746 -6.33422852 78.03930664 C-6.67421875 78.99232666 -7.01420898 79.94534668 -7.36450195 80.92724609 C-8.22485352 83.11352539 -8.22485352 83.11352539 -9.22485352 84.11352539 C-12.08752919 84.18677707 -14.92557251 84.20590744 -17.78735352 84.17602539 C-18.59366211 84.17151367 -19.3999707 84.16700195 -20.23071289 84.16235352 C-22.22879108 84.15053057 -24.22683135 84.13259453 -26.22485352 84.11352539 C-25.61995654 77.51549529 -23.50402064 71.6431643 -21.28735352 65.42602539 C-20.88983887 64.30421875 -20.49232422 63.18241211 -20.08276367 62.02661133 C-19.23508464 59.6346032 -18.38575297 57.2431802 -17.53491211 54.85229492 C-16.4249047 51.68445045 -15.34779045 48.50986916 -14.29252625 45.32365417 C-13.65571308 43.40616033 -13.00923911 41.49220803 -12.359375 39.57910156 C-11.53635953 37.15121391 -10.72915924 34.71789205 -9.93994141 32.27880859 C-7.52639173 25.27276086 -5.37112036 21.35129373 0.77514648 17.11352539 C-1.53485352 16.78352539 -3.84485352 16.45352539 -6.22485352 16.11352539 C-7.39396404 11.99944026 -7.04243249 9.76229351 -5.34985352 5.86352539 C-4.98118164 4.99211914 -4.61250977 4.12071289 -4.23266602 3.22290039 C-2.76012517 0.14083817 -2.76012517 0.14083817 0 0 Z " fill="#FE0202" transform="translate(461.224853515625,204.886474609375)"/>
<path d="M0 0 C7.59 0 15.18 0 23 0 C22.2496627 5.25236108 21.30474445 9.50673473 19.5 14.375 C19.24009277 15.09341064 18.98018555 15.81182129 18.71240234 16.55200195 C18.13222432 18.15461386 17.54922853 19.75620764 16.96386719 21.35693359 C15.92727458 24.19942385 14.90384384 27.04641543 13.8828125 29.89453125 C11.59792761 36.26642153 9.30053504 42.63374569 7 49 C6.63551758 50.00949707 6.27103516 51.01899414 5.89550781 52.05908203 C2.03373202 62.74823891 -1.86801842 73.41179721 -6 84 C-11.61 84 -17.22 84 -23 84 C-22.23769027 78.66383187 -21.39343769 74.79724386 -19.6015625 69.8515625 C-19.36593597 69.1947348 -19.13030945 68.5379071 -18.88754272 67.86117554 C-18.13961233 65.78013232 -17.38266028 63.70251803 -16.625 61.625 C-15.63604893 58.88873124 -14.65021378 56.15134138 -13.6640625 53.4140625 C-13.30932358 52.43102646 -13.30932358 52.43102646 -12.94741821 51.4281311 C-9.7303996 42.57368553 -9.7303996 42.57368553 -7.1484375 33.5234375 C-5.33019301 26.12189679 -3.21755523 22.33040373 3.171875 18.07421875 C3.77515625 17.71972656 4.3784375 17.36523438 5 17 C2.03 16.67 -0.94 16.34 -4 16 C-4.59043142 9.06243076 -3.18185282 7.15916885 0 0 Z " fill="#FE0303" transform="translate(430,205)"/>
<path d="M0 0 C7.59 0 15.18 0 23 0 C22.67494756 4.33403254 22.34097021 8.66720501 22 13 C21.92491211 13.95922363 21.84982422 14.91844727 21.77246094 15.90673828 C21.51876909 19.12564013 21.25984471 22.34408943 21 25.5625 C20.9170166 26.62146484 20.8340332 27.68042969 20.74853516 28.77148438 C20.62551025 30.2787207 20.62551025 30.2787207 20.5 31.81640625 C20.4278125 32.71818604 20.355625 33.61996582 20.28125 34.54907227 C20.02458689 36.78573975 19.563626 38.82585233 19 41 C18.70132273 44.39745391 18.49328176 47.7953517 18.28125 51.19921875 C18 54 18 54 17 55 C14.64686445 55.07271741 12.29166332 55.08370868 9.9375 55.0625 C8.64714844 55.05347656 7.35679687 55.04445313 6.02734375 55.03515625 C5.02832031 55.02355469 4.02929688 55.01195312 3 55 C2.8925336 48.39753314 3.28754907 41.99878797 4 35.4375 C4.09539062 34.52419922 4.19078125 33.61089844 4.2890625 32.66992188 C4.52191875 30.44614468 4.75895855 28.22290224 5 26 C-0.27735159 31.64599012 -5.52868181 37.28709673 -10.375 43.3125 C-11.02210938 44.11042969 -11.66921875 44.90835938 -12.3359375 45.73046875 C-14.0354939 47.90082834 -14.0354939 47.90082834 -15.0390625 50.17578125 C-16.1166972 52.36171505 -17.09884463 53.48227788 -19 55 C-24.39722196 55.59484044 -29.59464756 55.40016123 -35 55 C-34.12336783 50.41906997 -31.4081702 47.69757993 -28.375 44.3125 C-27.27948071 43.06796146 -26.18572686 41.82186663 -25.09375 40.57421875 C-24.29710938 39.66422119 -24.29710938 39.66422119 -23.484375 38.73583984 C-20.9415249 35.76221086 -18.61246463 32.63396903 -16.3046875 29.4765625 C-15.87414062 28.98929687 -15.44359375 28.50203125 -15 28 C-14.34 28 -13.68 28 -13 28 C-12.566875 27.1028125 -12.566875 27.1028125 -12.125 26.1875 C-11 24 -11 24 -9 21 C-8.34 21 -7.68 21 -7 21 C-6.7525 20.443125 -6.505 19.88625 -6.25 19.3125 C-4.78393985 16.60028873 -2.97010529 14.36412635 -1 12 C-1.99 11.01 -2.98 10.02 -4 9 C0.95 9 5.9 9 11 9 C11 8.34 11 7.68 11 7 C4.07 6.505 4.07 6.505 -3 6 C-3 5.34 -3 4.68 -3 4 C-1.35 3.34 0.3 2.68 2 2 C1.34 1.34 0.68 0.68 0 0 Z " fill="#060606" transform="translate(145,234)"/>
<path d="M0 0 C-0.95091196 2.939955 -1.91200435 5.87648303 -2.875 8.8125 C-3.14441406 9.64587891 -3.41382813 10.47925781 -3.69140625 11.33789062 C-3.95566406 12.14033203 -4.21992188 12.94277344 -4.4921875 13.76953125 C-4.73308105 14.50792236 -4.97397461 15.24631348 -5.22216797 16.00708008 C-6 18 -6 18 -8 21 C-11.15842605 21.29491328 -14.09002726 21.37209132 -17.25 21.3125 C-18.26102783 21.3019458 -19.27205566 21.2913916 -20.3137207 21.28051758 C-35.5553072 21.03245877 -50.7793794 20.06048246 -65.99420166 19.17437744 C-70.45650365 18.91550285 -74.91906784 18.66125672 -79.38160706 18.4065094 C-93.25498658 17.61429635 -107.12769356 16.810772 -121 16 C-121 15.67 -121 15.34 -121 15 C-119.84965523 14.9845388 -119.84965523 14.9845388 -118.67607117 14.96876526 C-111.31164531 14.86921338 -103.94727188 14.7665324 -96.58293438 14.66066074 C-92.80034554 14.60638294 -89.0177491 14.55315831 -85.23510742 14.50268555 C-66.14305912 14.2470412 -47.07770953 13.81998655 -28 13 C-35.19946541 12.25117414 -42.39903493 11.50335722 -49.59872723 10.75671577 C-52.94436623 10.40972789 -56.28996205 10.0623359 -59.63549805 9.71435547 C-75.41742583 8.07305868 -91.20085709 6.46719603 -107 5 C-107 4.67 -107 4.34 -107 4 C-105.12973145 3.92483154 -105.12973145 3.92483154 -103.22167969 3.84814453 C-97.39756099 3.61244191 -91.57374196 3.36981994 -85.75 3.125 C-84.69503326 3.08086975 -83.64006653 3.0367395 -82.5531311 2.99127197 C-70.41004844 2.47847229 -58.30068585 1.88138251 -46.1875 0.875 C-30.80723724 -0.38544511 -15.4183691 -0.18930752 0 0 Z " fill="#0A0A0A" transform="translate(423,206)"/>
<path d="M0 0 C12.87 0 25.74 0 39 0 C40 2 40 2 39.22265625 4.3828125 C38.1484375 6.921875 37.07421875 9.4609375 36 12 C30.06 12.495 30.06 12.495 24 13 C23.48614746 14.42094971 23.48614746 14.42094971 22.96191406 15.87060547 C21.67389222 19.43095255 20.38364621 22.99049038 19.09277344 26.54980469 C18.53749172 28.081816 17.98278991 29.61403765 17.42871094 31.14648438 C14.41293475 39.48613981 11.36165645 47.79168352 8 56 C3.05 56 -1.9 56 -7 56 C-6.13117651 51.65588253 -4.93286694 47.70483267 -3.4375 43.5625 C-3.18081543 42.84328369 -2.92413086 42.12406738 -2.65966797 41.38305664 C0.85081734 31.57337307 4.42632283 21.78679612 8 12 C4.37 12 0.74 12 -3 12 C-4 9 -4 9 0 0 Z " fill="#080808" transform="translate(377,233)"/>
<path d="M0 0 C1.63473526 0.0007909 3.26960435 0.02900306 4.90356445 0.0793457 C6.19566582 0.08995781 6.19566582 0.08995781 7.51387024 0.1007843 C10.26574484 0.12877856 13.01558603 0.19152372 15.7668457 0.25512695 C17.6320507 0.28020344 19.49728758 0.30301774 21.36254883 0.32348633 C25.93559818 0.37862145 30.5071272 0.46492663 35.0793457 0.56762695 C33.95918272 9.28078942 33.95918272 9.28078942 31.0793457 12.56762695 C28.16137695 13.0559082 28.16137695 13.0559082 24.8918457 12.88012695 C23.80516602 12.83500977 22.71848633 12.78989258 21.59887695 12.7434082 C20.35170898 12.65639648 20.35170898 12.65639648 19.0793457 12.56762695 C18.94810303 13.29038818 18.81686035 14.01314941 18.68164062 14.7578125 C18.10538417 17.44615281 17.34824799 19.9308455 16.44262695 22.5246582 C16.11520508 23.46559326 15.7877832 24.40652832 15.45043945 25.37597656 C15.10110352 26.36734619 14.75176758 27.35871582 14.3918457 28.38012695 C14.03606445 29.3966333 13.6802832 30.41313965 13.3137207 31.46044922 C10.35429922 39.87663554 7.25523797 48.23090976 4.0793457 56.56762695 C-0.8706543 56.56762695 -5.8206543 56.56762695 -10.9206543 56.56762695 C-10.11855017 51.75500218 -9.12051285 47.94474941 -7.48706055 43.41137695 C-7.24906235 42.74601929 -7.01106415 42.08066162 -6.76585388 41.3951416 C-6.00969969 39.28422984 -5.24665751 37.17589034 -4.4831543 35.06762695 C-3.72477055 32.95883241 -2.96780702 30.84953283 -2.21116638 28.7401123 C-1.52361741 26.82566767 -0.83270354 24.91243247 -0.14160156 22.99926758 C0.97264492 19.86752423 2.04082166 16.72517489 3.0793457 13.56762695 C-0.5506543 13.23762695 -4.1806543 12.90762695 -7.9206543 12.56762695 C-6.78483788 0.98229953 -6.78483788 0.98229953 0 0 Z " fill="#070707" transform="translate(180.920654296875,232.432373046875)"/>
<path d="M0 0 C2.6875 -0.375 2.6875 -0.375 6 0 C8.16704095 1.81426684 9.38125003 3.61948534 11 6 C11 6.66 11 7.32 11 8 C12.98 8 14.96 8 17 8 C15.4375 11 15.4375 11 13 14 C9.29366946 14.48045026 6.29727839 14.0495464 2.625 13.4375 C1.325625 13.2209375 1.325625 13.2209375 0 13 C-0.33 13.33 -0.66 13.66 -1 14 C-2.99958364 14.04080783 -5.00045254 14.04254356 -7 14 C-5.375 11.0625 -5.375 11.0625 -3 8 C0.25 7.125 0.25 7.125 3 7 C2.01 4.69 1.02 2.38 0 0 Z " fill="#CBCBCB" transform="translate(46,296)"/>
<path d="M0 0 C2.6875 -0.375 2.6875 -0.375 6 0 C8.16704095 1.81426684 9.38125003 3.61948534 11 6 C11 6.66 11 7.32 11 8 C10.43410156 8.12117188 9.86820313 8.24234375 9.28515625 8.3671875 C8.55167969 8.53476562 7.81820312 8.70234375 7.0625 8.875 C5.96615234 9.11863281 5.96615234 9.11863281 4.84765625 9.3671875 C2.79299706 9.82961523 2.79299706 9.82961523 2 12 C1.34 12 0.68 12 0 12 C0 12.66 0 13.32 0 14 C1.65 14 3.3 14 5 14 C3.71240983 16.87231652 2.62122831 19.19225634 0 21 C-3.6875 21.1875 -3.6875 21.1875 -7 21 C-5.35 19.02 -3.7 17.04 -2 15 C-3.65 14.67 -5.3 14.34 -7 14 C-5.4375 11 -5.4375 11 -3 8 C0.75 7.625 0.75 7.625 4 8 C3.01 6.576875 3.01 6.576875 2 5.125 C0 2 0 2 0 0 Z " fill="#212020" transform="translate(74,296)"/>
<path d="M0 0 C3.96 0 7.92 0 12 0 C11.01 3.3 10.02 6.6 9 10 C5.04 10 1.08 10 -3 10 C-2.01 6.7 -1.02 3.4 0 0 Z " fill="#DDDCDC" transform="translate(86,267)"/>
<path d="M0 0 C1.134375 0.020625 2.26875 0.04125 3.4375 0.0625 C1.9525 2.5375 1.9525 2.5375 0.4375 5.0625 C2.0875 5.3925 3.7375 5.7225 5.4375 6.0625 C3.61078621 8.60176173 1.76872122 10.9675512 -0.5625 13.0625 C-3.9375 13.5 -3.9375 13.5 -6.5625 13.0625 C-5.41076645 10.59449953 -4.51466435 9.01466435 -2.5625 7.0625 C-4.2125 6.7325 -5.8625 6.4025 -7.5625 6.0625 C-4.02886364 0.07068182 -4.02886364 0.07068182 0 0 Z " fill="#202020" transform="translate(88.5625,303.9375)"/>
<path d="M0 0 C16.83 0 33.66 0 51 0 C51 0.33 51 0.66 51 1 C50.11739502 1.02505615 49.23479004 1.0501123 48.32543945 1.07592773 C45.03593385 1.1713353 41.74658818 1.27055193 38.45727539 1.37231445 C37.03642225 1.41549804 35.61552274 1.45718408 34.19458008 1.49731445 C32.1465053 1.55542095 30.09866035 1.61899638 28.05078125 1.68359375 C26.82012939 1.72025146 25.58947754 1.75690918 24.3215332 1.79467773 C21.08709917 1.91892314 21.08709917 1.91892314 18.30859375 2.54101562 C16.00041757 2.99991698 14.32834607 2.98034051 12.01171875 2.66015625 C11.30595703 2.56669922 10.60019531 2.47324219 9.87304688 2.37695312 C9.15181641 2.27318359 8.43058594 2.16941406 7.6875 2.0625 C6.94693359 1.96259766 6.20636719 1.86269531 5.44335938 1.75976562 C3.62790363 1.51380065 1.81379929 1.25789626 0 1 C0 0.67 0 0.34 0 0 Z " fill="#ECECEC" transform="translate(176,304)"/>
<path d="M0 0 C2.05078125 0.03255208 4.1015625 0.06510417 6.15234375 0.09765625 C4.75277196 2.73531079 3.32830521 5.03540299 1.15234375 7.09765625 C-1.75281768 7.73668437 -3.84043751 7.45444491 -6.84765625 7.09765625 C-2.24446833 0.1186294 -2.24446833 0.1186294 0 0 Z " fill="#CDCDCB" transform="translate(108.84765625,302.90234375)"/>
<path d="M0 0 C1.670625 0.061875 1.670625 0.061875 3.375 0.125 C1.89 2.6 1.89 2.6 0.375 5.125 C3.345 5.62 3.345 5.62 6.375 6.125 C6.375 6.455 6.375 6.785 6.375 7.125 C1.5416528 7.20833357 -2.86192563 7.07761487 -7.625 6.125 C-4.84462617 0.16705607 -4.84462617 0.16705607 0 0 Z " fill="#1D1C1B" transform="translate(102.625,303.875)"/>
<path d="M0 0 C2.75 -0.3125 2.75 -0.3125 6 0 C8.375 2.3125 8.375 2.3125 10 5 C10 5.99 10 6.98 10 8 C7.25 8.375 7.25 8.375 4 8 C0 3.15789474 0 3.15789474 0 0 Z " fill="#131211" transform="translate(88,296)"/>
<path d="M0 0 C2.97 0.495 2.97 0.495 6 1 C4.71240983 3.87231652 3.62122831 6.19225634 1 8 C-2.6875 8.1875 -2.6875 8.1875 -6 8 C-4.02 5.36 -2.04 2.72 0 0 Z " fill="#292929" transform="translate(73,309)"/>
<path d="M0 0 C0.33 0.99 0.66 1.98 1 3 C-0.9375 5.6875 -0.9375 5.6875 -3 8 C-1.02 8 0.96 8 3 8 C3 8.33 3 8.66 3 9 C-1.29 8.67 -5.58 8.34 -10 8 C-8.375 5 -8.375 5 -6 2 C-2.75 1.625 -2.75 1.625 0 2 C0 1.34 0 0.68 0 0 Z " fill="#DCDBDA" transform="translate(98,302)"/>
<path d="M0 0 C-1.2843241 2.86503068 -2.41598787 5.15427705 -5 7 C-8.1875 7.1875 -8.1875 7.1875 -11 7 C-8.38092426 1.15744643 -6.57566735 -0.43837782 0 0 Z " fill="#202020" transform="translate(51,310)"/>
<path d="M0 0 C2.6875 -0.375 2.6875 -0.375 6 0 C8.11408407 1.81909559 9.38699825 3.67537983 11 6 C11 6.33 11 6.66 11 7 C8.69 7 6.38 7 4 7 C2.02 3.535 2.02 3.535 0 0 Z " fill="#101010" transform="translate(60,296)"/>
<path d="M0 0 C2.6875 -0.4375 2.6875 -0.4375 6 0 C8.04775301 2.11124923 9.53480226 4.45859507 11 7 C8.69 7 6.38 7 4 7 C2.02 3.535 2.02 3.535 0 0 Z " fill="#171717" transform="translate(46,296)"/>
<path d="M0 0 C1.134375 0.020625 2.26875 0.04125 3.4375 0.0625 C0.6875 4.9375 0.6875 4.9375 -1.5625 6.0625 C-3.56210012 6.102492 -5.56297242 6.10596799 -7.5625 6.0625 C-4.02886364 0.07068182 -4.02886364 0.07068182 0 0 Z " fill="#0D0C0B" transform="translate(88.5625,303.9375)"/>
<path d="M0 0 C-2.475 3.465 -2.475 3.465 -5 7 C-7.97 6.505 -7.97 6.505 -11 6 C-11 5.34 -11 4.68 -11 4 C-10.34 4 -9.68 4 -9 4 C-8.67 3.01 -8.34 2.02 -8 1 C-5.29120665 -0.35439668 -2.99066732 -0.06501451 0 0 Z " fill="#D9D7D8" transform="translate(85,304)"/>
<path d="M0 0 C-1.5625 3 -1.5625 3 -4 6 C-7.75 6.375 -7.75 6.375 -11 6 C-7.82056713 0.36373265 -6.43725245 -0.13994027 0 0 Z " fill="#0F0F0F" transform="translate(63,304)"/>
<path d="M0 0 C0.94875 0.04125 1.8975 0.0825 2.875 0.125 C2.545 1.115 2.215 2.105 1.875 3.125 C1.215 3.125 0.555 3.125 -0.125 3.125 C-0.455 4.115 -0.785 5.105 -1.125 6.125 C-3.105 6.125 -5.085 6.125 -7.125 6.125 C-4.34782609 0.17391304 -4.34782609 0.17391304 0 0 Z " fill="#181818" transform="translate(61.125,310.875)"/>
<path d="M0 0 C3.75 -0.375 3.75 -0.375 7 0 C5.63016497 3.16115776 5.0109362 3.9927092 2 6 C-1.1875 6.125 -1.1875 6.125 -4 6 C-2.4375 3 -2.4375 3 0 0 Z " fill="#0D0D0D" transform="translate(71,304)"/>
<path d="M0 0 C3.25 -0.375 3.25 -0.375 6 0 C3.125 4.875 3.125 4.875 2 6 C0.00041636 6.04080783 -2.00045254 6.04254356 -4 6 C-2.375 3 -2.375 3 0 0 Z " fill="#121213" transform="translate(43,304)"/>
</svg>
